<svg width="24" height="25" viewBox="0 0 24 25" fill="none" xmlns="http://www.w3.org/2000/svg">
<path d="M0 12.292C0 8.56446 0 6.70069 0.608964 5.23052C1.42092 3.2703 2.97831 1.71291 4.93853 0.900956C6.4087 0.291992 8.27247 0.291992 12 0.291992C15.7275 0.291992 17.5913 0.291992 19.0615 0.900956C21.0217 1.71291 22.5791 3.2703 23.391 5.23052C24 6.70069 24 8.56446 24 12.292C24 16.0195 24 17.8833 23.391 19.3535C22.5791 21.3137 21.0217 22.8711 19.0615 23.683C17.5913 24.292 15.7275 24.292 12 24.292C8.27247 24.292 6.4087 24.292 4.93853 23.683C2.97831 22.8711 1.42092 21.3137 0.608964 19.3535C0 17.8833 0 16.0195 0 12.292Z" fill="#84EBB3"/>
<path d="M14.6667 19.4588H9.33333C6.9 19.4588 5.5 18.0588 5.5 15.6255V8.95882C5.5 6.52549 6.9 5.12549 9.33333 5.12549H14.6667C17.1 5.12549 18.5 6.52549 18.5 8.95882V15.6255C18.5 18.0588 17.1 19.4588 14.6667 19.4588ZM9.33333 6.12549C7.42667 6.12549 6.5 7.05216 6.5 8.95882V15.6255C6.5 17.5322 7.42667 18.4588 9.33333 18.4588H14.6667C16.5733 18.4588 17.5 17.5322 17.5 15.6255V8.95882C17.5 7.05216 16.5733 6.12549 14.6667 6.12549H9.33333Z" fill="white"/>
<path d="M9.99984 11.6988C9.8865 11.6988 9.77317 11.6788 9.6665 11.6322C9.35984 11.4988 9.1665 11.1988 9.1665 10.8722V5.62549C9.1665 5.35215 9.39317 5.12549 9.6665 5.12549H14.3332C14.6065 5.12549 14.8332 5.35215 14.8332 5.62549V10.8655C14.8332 11.1988 14.6398 11.4988 14.3332 11.6255C14.0332 11.7588 13.6799 11.6988 13.4332 11.4722L11.9998 10.1588L10.5665 11.4788C10.4065 11.6255 10.2065 11.6988 9.99984 11.6988ZM11.9998 9.09884C12.1998 9.09884 12.4065 9.17214 12.5665 9.31881L13.8332 10.4855V6.12549H10.1665V10.4855L11.4332 9.31881C11.5932 9.17214 11.7998 9.09884 11.9998 9.09884Z" fill="white"/>
<path d="M15.6668 14.1255H12.8335C12.5602 14.1255 12.3335 13.8988 12.3335 13.6255C12.3335 13.3522 12.5602 13.1255 12.8335 13.1255H15.6668C15.9402 13.1255 16.1668 13.3522 16.1668 13.6255C16.1668 13.8988 15.9402 14.1255 15.6668 14.1255Z" fill="white"/>
<path d="M15.6667 16.792H10C9.72667 16.792 9.5 16.5653 9.5 16.292C9.5 16.0187 9.72667 15.792 10 15.792H15.6667C15.94 15.792 16.1667 16.0187 16.1667 16.292C16.1667 16.5653 15.94 16.792 15.6667 16.792Z" fill="white"/>
</svg>
