<svg width="40" height="41" viewBox="0 0 40 41" fill="none" xmlns="http://www.w3.org/2000/svg">
<path d="M22.5 6.02051H17.5C16.0833 6.02051 15 7.10384 15 8.52051V11.0205H16.6667V8.52051C16.6667 8.02051 17 7.68717 17.5 7.68717H22.5C23 7.68717 23.3333 8.02051 23.3333 8.52051V11.0205H25V8.52051C25 7.10384 23.9167 6.02051 22.5 6.02051Z" fill="#7E7E8B"/>
<path d="M33.3345 36.0212H6.66781C4.83447 36.0212 3.33447 34.5212 3.33447 32.6878V12.6878C3.33447 10.8545 4.83447 9.35449 6.66781 9.35449H33.3345C35.1678 9.35449 36.6678 10.8545 36.6678 12.6878V32.6878C36.6678 34.5212 35.1678 36.0212 33.3345 36.0212Z" fill="#FF1414"/>
<path d="M33.3345 23.5212H6.66781C4.83447 23.5212 3.33447 22.0212 3.33447 20.1878V12.6878C3.33447 10.8545 4.83447 9.35449 6.66781 9.35449H33.3345C35.1678 9.35449 36.6678 10.8545 36.6678 12.6878V20.1878C36.6678 22.0212 35.1678 23.5212 33.3345 23.5212Z" fill="#FECA20"/>
<path d="M21.6667 21.8538H18.3333C17.8333 21.8538 17.5 21.5205 17.5 21.0205V19.3538C17.5 18.8538 17.8333 18.5205 18.3333 18.5205H21.6667C22.1667 18.5205 22.5 18.8538 22.5 19.3538V21.0205C22.5 21.5205 22.1667 21.8538 21.6667 21.8538Z" fill="black"/>
</svg>
