<svg width="40" height="41" viewBox="0 0 40 41" fill="none" xmlns="http://www.w3.org/2000/svg">
<g clip-path="url(#clip0_58_412)">
<path d="M13.981 30.3105H25.1849C25.2849 30.3105 25.384 30.3302 25.4764 30.3685C25.5688 30.4068 25.6527 30.4629 25.7235 30.5336C25.7942 30.6044 25.8503 30.6883 25.8886 30.7807C25.9269 30.8731 25.9466 30.9722 25.9466 31.0722V38.0255C25.9481 38.1678 25.9098 38.3076 25.836 38.4292C25.7622 38.5508 25.6558 38.6493 25.5289 38.7135C23.6893 39.6628 21.6529 40.1678 19.5829 40.1877C17.513 40.1678 15.4765 39.6628 13.637 38.7135C13.5101 38.6493 13.4037 38.5508 13.3298 38.4292C13.256 38.3076 13.2177 38.1678 13.2193 38.0255V31.0722C13.2193 30.9722 13.239 30.8731 13.2773 30.7807C13.3155 30.6883 13.3716 30.6044 13.4424 30.5336C13.5131 30.4629 13.5971 30.4068 13.6895 30.3685C13.7819 30.3302 13.8809 30.3105 13.981 30.3105Z" fill="#1443FF"/>
<path d="M19.5829 40.1877C17.5133 40.165 15.4775 39.6603 13.637 38.7135C13.5101 38.6493 13.4037 38.5508 13.3298 38.4292C13.256 38.3076 13.2177 38.1678 13.2193 38.0255V31.0722C13.2193 30.9722 13.239 30.8731 13.2773 30.7807C13.3155 30.6883 13.3716 30.6044 13.4424 30.5336C13.5131 30.4629 13.5971 30.4068 13.6895 30.3685C13.7819 30.3302 13.8809 30.3105 13.981 30.3105H25.1849C25.2849 30.3105 25.384 30.3302 25.4764 30.3685C25.5688 30.4068 25.6527 30.4629 25.7235 30.5336C25.7942 30.6044 25.8503 30.6883 25.8886 30.7807C25.9269 30.8731 25.9466 30.9722 25.9466 31.0722V38.0255C25.9481 38.1678 25.9098 38.3076 25.836 38.4292C25.7622 38.5508 25.6558 38.6493 25.5289 38.7135C23.6884 39.6603 21.6525 40.165 19.5829 40.1877ZM14.4478 37.7307C16.042 38.5285 17.8002 38.9439 19.5829 38.9439C21.3656 38.9439 23.1238 38.5285 24.7181 37.7307V31.539H14.4478V37.7307Z" fill="#1443FF"/>
<path d="M6.0498 18.4444C6.0498 20.2642 6.4057 22.0662 7.09716 23.7474C7.78863 25.4287 8.80212 26.9564 10.0798 28.2431C11.3574 29.5299 12.8743 30.5507 14.5436 31.2471C16.2129 31.9435 18.0021 32.3019 19.809 32.3019C21.6159 32.3019 23.4051 31.9435 25.0744 31.2471C26.7438 30.5507 28.2606 29.5299 29.5383 28.2431C30.8159 26.9564 31.8294 25.4287 32.5209 23.7474C33.2123 22.0662 33.5682 20.2642 33.5682 18.4444C33.5682 16.6246 33.2123 14.8226 32.5209 13.1414C31.8294 11.4601 30.8159 9.93247 29.5383 8.64568C28.2606 7.35889 26.7438 6.33816 25.0744 5.64175C23.4051 4.94535 21.6159 4.58691 19.809 4.58691C18.0021 4.58691 16.2129 4.94535 14.5436 5.64175C12.8743 6.33816 11.3574 7.35889 10.0798 8.64568C8.80212 9.93247 7.78863 11.4601 7.09716 13.1414C6.4057 14.8226 6.0498 16.6246 6.0498 18.4444Z" fill="#13FF7F"/>
<path d="M19.8034 32.2762C17.0586 32.2956 14.3698 31.4995 12.078 29.9887C9.78629 28.4779 7.99485 26.3205 6.93092 23.7902C5.867 21.2598 5.57851 18.4705 6.10206 15.776C6.6256 13.0814 7.93759 10.6031 9.87162 8.65523C11.8057 6.70738 14.2746 5.37779 16.9653 4.83508C19.6561 4.29237 22.4474 4.561 24.9852 5.60689C27.5231 6.65278 29.6932 8.42881 31.2202 10.7097C32.7473 12.9907 33.5626 15.6738 33.5627 18.4187C33.5692 22.0789 32.1248 25.5925 29.5459 28.1899C26.9669 30.7873 23.4636 32.2567 19.8034 32.2762ZM19.8034 5.81425C17.3016 5.79478 14.8503 6.51888 12.7606 7.89468C10.6709 9.27048 9.03688 11.236 8.06593 13.5419C7.09499 15.8477 6.83083 18.39 7.30696 20.8462C7.7831 23.3025 8.97808 25.5619 10.7403 27.338C12.5025 29.114 14.7526 30.3266 17.205 30.8219C19.6574 31.3172 22.2017 31.0729 24.5151 30.12C26.8285 29.1671 28.8067 27.5485 30.1988 25.4696C31.5909 23.3907 32.3341 20.9452 32.3342 18.4432C32.3407 15.1088 31.0257 11.9077 28.6772 9.54067C26.3286 7.17368 23.1378 5.83375 19.8034 5.81425Z" fill="#13FF7F"/>
<path d="M14.6522 34.2458C14.498 34.2458 14.3501 34.1845 14.2411 34.0755C14.1321 33.9665 14.0708 33.8186 14.0708 33.6644C14.0708 33.5102 14.1321 33.3623 14.2411 33.2533C14.3501 33.1443 14.498 33.083 14.6522 33.083H24.5591C24.7133 33.083 24.8612 33.1443 24.9702 33.2533C25.0793 33.3623 25.1405 33.5102 25.1405 33.6644C25.1405 33.8186 25.0793 33.9665 24.9702 34.0755C24.8612 34.1845 24.7133 34.2458 24.5591 34.2458H14.6522Z" fill="white"/>
<path d="M21.234 37.0827H14.6061C14.452 37.0827 14.3041 37.0214 14.1951 36.9124C14.0861 36.8033 14.0249 36.6555 14.0249 36.5013C14.0249 36.3471 14.0861 36.1993 14.1951 36.0903C14.3041 35.9812 14.452 35.92 14.6061 35.9199H21.234C21.3882 35.92 21.536 35.9812 21.645 36.0903C21.754 36.1993 21.8153 36.3471 21.8153 36.5013C21.8153 36.6555 21.754 36.8033 21.645 36.9124C21.536 37.0214 21.3882 37.0827 21.234 37.0827Z" fill="white"/>
<path d="M30.7617 7.31321C30.6057 7.31101 30.4564 7.24952 30.344 7.14122C30.2315 7.0264 30.1685 6.87203 30.1685 6.71124C30.1685 6.55046 30.2315 6.39609 30.344 6.28127L33.0713 3.40658C33.1854 3.28928 33.3413 3.22209 33.5049 3.21979C33.6685 3.21748 33.8263 3.28025 33.9436 3.39429C34.0609 3.50833 34.128 3.66429 34.1303 3.82786C34.1326 3.99144 34.0699 4.14923 33.9558 4.26653L31.204 7.14122C31.1454 7.19778 31.0761 7.24212 31.0001 7.27165C30.9242 7.30117 30.8432 7.3153 30.7617 7.31321Z" fill="#FECA20"/>
<path d="M9.45916 7.31321C9.37597 7.3121 9.29387 7.29411 9.21785 7.26032C9.14183 7.22654 9.07346 7.17766 9.0169 7.11665L6.24048 4.26653C6.18402 4.20845 6.13954 4.13982 6.1096 4.06455C6.07966 3.98929 6.06484 3.90886 6.06598 3.82786C6.06828 3.66429 6.13547 3.50833 6.25277 3.39429C6.37006 3.28025 6.52785 3.21748 6.69143 3.21979C6.85501 3.22209 7.01097 3.28928 7.125 3.40658L9.90142 6.28127C9.98224 6.36839 10.036 6.47709 10.0563 6.59419C10.0766 6.71128 10.0625 6.83175 10.0157 6.94098C9.96886 7.05021 9.89137 7.14351 9.79259 7.20958C9.69381 7.27565 9.57798 7.31165 9.45916 7.31321Z" fill="#FECA20"/>
<path d="M19.7051 4.53624C19.5422 4.53624 19.3859 4.47152 19.2707 4.35633C19.1555 4.24114 19.0908 4.0849 19.0908 3.92199V0.801596C19.0909 0.638713 19.1556 0.482516 19.2708 0.367355C19.386 0.252194 19.5422 0.1875 19.7051 0.1875C19.868 0.1875 20.0242 0.252194 20.1394 0.367355C20.2545 0.482516 20.3193 0.638713 20.3193 0.801596V3.92199C20.3193 4.0849 20.2546 4.24114 20.1394 4.35633C20.0242 4.47152 19.868 4.53624 19.7051 4.53624Z" fill="#FECA20"/>
<path d="M23.1169 14.2881C22.2835 14.0814 20.9254 14.0738 19.7835 14.0814M19.7835 14.0814C19.4017 14.0839 19.6325 14.0678 19.1169 14.0814C17.7712 14.1234 16.4529 14.6828 16.4502 16.2673C16.4473 17.9554 18.1169 18.4548 19.7835 18.4548C21.4502 18.4548 23.1169 18.8401 23.1169 20.6423C23.1169 21.9966 21.771 22.5901 20.0937 22.7866C18.7604 22.7866 18.1169 22.8298 16.4502 22.6214M19.7835 14.0814V11.7881M19.7835 22.7873V25.1214" stroke="black" stroke-width="2.5" stroke-linecap="round" stroke-linejoin="round"/>
</g>
<defs>
<clipPath id="clip0_58_412">
<rect width="40" height="40" fill="white" transform="translate(0 0.1875)"/>
</clipPath>
</defs>
</svg>
