<svg width="33" height="33" viewBox="0 0 33 33" fill="none" xmlns="http://www.w3.org/2000/svg">
<rect x="1.4165" y="1.23535" width="30.5" height="30.5" rx="15.25" fill="white"/>
<rect x="1.4165" y="1.23535" width="30.5" height="30.5" rx="15.25" stroke="#D4D4D8" stroke-width="1.5"/>
<path fill-rule="evenodd" clip-rule="evenodd" d="M12.8161 20.4378C12.9104 20.5298 13.0377 20.5802 13.1694 20.5778C13.3008 20.5781 13.4272 20.528 13.5228 20.4378L19.7426 14.2121V19.5844C19.7426 19.8605 19.9665 20.0844 20.2426 20.0844C20.3769 20.088 20.5069 20.0367 20.6025 19.9424C20.6981 19.848 20.7511 19.7187 20.7493 19.5844V13.0971C20.7667 13.0208 20.7664 12.9402 20.7463 12.8616C20.7011 12.6845 20.5628 12.5462 20.3856 12.5009C20.3075 12.481 20.2274 12.4805 20.1515 12.4977H13.6626C13.3865 12.4977 13.1626 12.7216 13.1626 12.9977C13.1626 13.2738 13.3865 13.4977 13.6626 13.4977H19.0429L12.8161 19.7245C12.7204 19.8185 12.6665 19.947 12.6665 20.0812C12.6665 20.2153 12.7204 20.3438 12.8161 20.4378Z" fill="black"/>
</svg>
