<svg width="24" height="25" viewBox="0 0 24 25" fill="none" xmlns="http://www.w3.org/2000/svg">
<path d="M0 12.292C0 8.56446 0 6.70069 0.608964 5.23052C1.42092 3.2703 2.97831 1.71291 4.93853 0.900956C6.4087 0.291992 8.27247 0.291992 12 0.291992C15.7275 0.291992 17.5913 0.291992 19.0615 0.900956C21.0217 1.71291 22.5791 3.2703 23.391 5.23052C24 6.70069 24 8.56446 24 12.292C24 16.0195 24 17.8833 23.391 19.3535C22.5791 21.3137 21.0217 22.8711 19.0615 23.683C17.5913 24.292 15.7275 24.292 12 24.292C8.27247 24.292 6.4087 24.292 4.93853 23.683C2.97831 22.8711 1.42092 21.3137 0.608964 19.3535C0 17.8833 0 16.0195 0 12.292Z" fill="#70ADFF"/>
<path d="M18.4324 17.5422C17.4806 15.8966 16.0137 14.7166 14.3018 14.1572C15.1486 13.6531 15.8065 12.885 16.1744 11.9708C16.5424 11.0567 16.6001 10.047 16.3387 9.09683C16.0773 8.14667 15.5112 7.3086 14.7274 6.71131C13.9436 6.11401 12.9854 5.79053 11.9999 5.79053C11.0145 5.79053 10.0563 6.11401 9.27244 6.71131C8.48863 7.3086 7.92255 8.14667 7.66114 9.09683C7.39973 10.047 7.45744 11.0567 7.82542 11.9708C8.19339 12.885 8.85128 13.6531 9.69805 14.1572C7.98618 14.716 6.5193 15.896 5.56743 17.5422C5.53252 17.5991 5.50936 17.6625 5.49933 17.7285C5.4893 17.7945 5.49259 17.8619 5.509 17.9266C5.52542 17.9913 5.55463 18.0521 5.59492 18.1053C5.63521 18.1586 5.68575 18.2032 5.74357 18.2366C5.80138 18.27 5.8653 18.2915 5.93156 18.2998C5.99781 18.308 6.06505 18.303 6.12931 18.2849C6.19358 18.2668 6.25356 18.236 6.30573 18.1943C6.3579 18.1526 6.40119 18.1009 6.43305 18.0422C7.61055 16.0072 9.6918 14.7922 11.9999 14.7922C14.3081 14.7922 16.3893 16.0072 17.5668 18.0422C17.5987 18.1009 17.642 18.1526 17.6941 18.1943C17.7463 18.236 17.8063 18.2668 17.8705 18.2849C17.9348 18.303 18.002 18.308 18.0683 18.2998C18.1345 18.2915 18.1985 18.27 18.2563 18.2366C18.3141 18.2032 18.3646 18.1586 18.4049 18.1053C18.4452 18.0521 18.4744 17.9913 18.4908 17.9266C18.5073 17.8619 18.5106 17.7945 18.5005 17.7285C18.4905 17.6625 18.4673 17.5991 18.4324 17.5422ZM8.49993 10.2922C8.49993 9.59999 8.7052 8.9233 9.08978 8.34773C9.47437 7.77216 10.021 7.32356 10.6605 7.05865C11.3001 6.79374 12.0038 6.72443 12.6827 6.85948C13.3617 6.99453 13.9853 7.32787 14.4748 7.81735C14.9643 8.30684 15.2976 8.93048 15.4327 9.60941C15.5677 10.2883 15.4984 10.9921 15.2335 11.6316C14.9686 12.2712 14.52 12.8178 13.9444 13.2024C13.3688 13.587 12.6922 13.7922 11.9999 13.7922C11.072 13.7912 10.1823 13.4222 9.52615 12.766C8.86999 12.1098 8.50092 11.2202 8.49993 10.2922Z" fill="white"/>
</svg>
