<svg width="155" height="32" viewBox="0 0 155 32" fill="none" xmlns="http://www.w3.org/2000/svg">
<path d="M55.9691 7.81772H59.4085L62.1586 19.0602H62.3404L68.8025 7.81772H72.242L69.6662 23.333H66.9692L68.7419 12.6738H68.6056L62.5449 23.2876H60.5373L58.0221 12.6511H57.8782L56.0903 23.333H53.3933L55.9691 7.81772ZM76.0202 23.5603C74.8535 23.5603 73.8889 23.3179 73.1262 22.833C72.3636 22.3431 71.8282 21.6512 71.5201 20.7572C71.2171 19.8582 71.1666 18.8001 71.3686 17.583C71.5656 16.386 71.9671 15.3355 72.5732 14.4314C73.1793 13.5223 73.9368 12.8152 74.8459 12.3102C75.7601 11.8001 76.7702 11.545 77.8763 11.545C78.5934 11.545 79.2525 11.6612 79.8536 11.8935C80.4546 12.1208 80.9621 12.4743 81.3763 12.9541C81.7904 13.4339 82.0758 14.045 82.2324 14.7875C82.3889 15.5249 82.3814 16.4037 82.2096 17.4239L82.0808 18.2648H72.5353L72.8308 16.4163H79.7399C79.8308 15.891 79.8005 15.4238 79.649 15.0148C79.4975 14.6006 79.245 14.2748 78.8914 14.0375C78.5379 13.8001 78.096 13.6814 77.5657 13.6814C77.0252 13.6814 76.5202 13.8203 76.0505 14.0981C75.5858 14.3708 75.1944 14.7243 74.8762 15.1587C74.5581 15.593 74.356 16.0501 74.2702 16.5299L73.9596 18.3027C73.8485 19.0299 73.8737 19.6234 74.0353 20.083C74.1969 20.5426 74.4798 20.881 74.8838 21.0981C75.2879 21.3153 75.798 21.4239 76.4141 21.4239C76.8182 21.4239 77.1919 21.3683 77.5354 21.2572C77.8788 21.1461 78.1843 20.9795 78.452 20.7572C78.7248 20.53 78.952 20.2522 79.1339 19.9239L81.6414 20.2118C81.3637 20.8885 80.9571 21.4795 80.4217 21.9845C79.8864 22.4845 79.245 22.8734 78.4975 23.1512C77.7551 23.4239 76.9293 23.5603 76.0202 23.5603ZM89.6091 11.6965L89.253 13.8178H82.5712L82.9196 11.6965H89.6091ZM85.0257 8.90864H87.7682L85.95 19.833C85.8944 20.2017 85.9045 20.4845 85.9803 20.6815C86.0611 20.8734 86.1899 21.0047 86.3666 21.0754C86.5485 21.1461 86.753 21.1815 86.9803 21.1815C87.147 21.1815 87.3035 21.1688 87.45 21.1436C87.5965 21.1133 87.7126 21.0906 87.7985 21.0754L87.9197 23.2194C87.753 23.2699 87.5283 23.3254 87.2454 23.386C86.9677 23.4466 86.6343 23.482 86.2454 23.4921C85.5485 23.5073 84.9424 23.4012 84.4272 23.1739C83.9171 22.9416 83.5434 22.5855 83.306 22.1057C83.0737 21.6209 83.0207 21.0148 83.1469 20.2875L85.0257 8.90864ZM91.5748 23.5679C90.8374 23.5679 90.196 23.4365 89.6505 23.1739C89.1051 22.9062 88.7036 22.5123 88.446 21.9921C88.1935 21.4719 88.1303 20.8305 88.2566 20.0678C88.3677 19.4113 88.5798 18.8683 88.893 18.439C89.2111 18.0097 89.6 17.6663 90.0596 17.4087C90.5243 17.1461 91.0293 16.9491 91.5748 16.8178C92.1253 16.6865 92.6859 16.5905 93.2566 16.5299C93.9536 16.4592 94.5167 16.3936 94.946 16.3329C95.3804 16.2723 95.7061 16.1814 95.9233 16.0602C96.1405 15.934 96.2718 15.742 96.3173 15.4845V15.439C96.4082 14.8683 96.3173 14.4264 96.0445 14.1132C95.7718 13.8001 95.3173 13.6435 94.6809 13.6435C94.0142 13.6435 93.4536 13.79 92.999 14.0829C92.5445 14.3759 92.2137 14.7218 92.0066 15.1208L89.5217 14.7572C89.8349 14.0501 90.2642 13.4592 90.8096 12.9844C91.3551 12.5046 91.9839 12.146 92.696 11.9087C93.4132 11.6662 94.1784 11.545 94.9915 11.545C95.5471 11.545 96.09 11.6107 96.6203 11.742C97.1557 11.8733 97.6279 12.0905 98.037 12.3935C98.4511 12.6915 98.7541 13.0981 98.9461 13.6132C99.143 14.1284 99.1759 14.7723 99.0446 15.5451L97.7491 23.333H95.1127L95.3854 21.7345H95.2945C95.0773 22.0577 94.7945 22.3608 94.446 22.6436C94.0975 22.9214 93.6834 23.1461 93.2036 23.3179C92.7238 23.4845 92.1809 23.5679 91.5748 23.5679ZM92.6127 21.5527C93.1632 21.5527 93.6581 21.4441 94.0975 21.2269C94.5369 21.0047 94.8981 20.7118 95.1809 20.3481C95.4637 19.9845 95.6405 19.588 95.7112 19.1587L95.9385 17.7875C95.8375 17.8582 95.6809 17.9239 95.4688 17.9845C95.2566 18.0451 95.0193 18.0981 94.7566 18.1436C94.4991 18.189 94.244 18.2294 93.9915 18.2648C93.739 18.3001 93.5218 18.3304 93.34 18.3557C92.9208 18.4112 92.5369 18.5022 92.1884 18.6284C91.845 18.7547 91.5596 18.9315 91.3324 19.1587C91.1101 19.381 90.9713 19.6688 90.9157 20.0224C90.8349 20.5224 90.9536 20.9037 91.2718 21.1663C91.5899 21.4239 92.0369 21.5527 92.6127 21.5527ZM99.4515 23.333L102.027 7.81772H107.262C108.272 7.81772 109.085 7.99449 109.702 8.34803C110.318 8.70157 110.742 9.18389 110.974 9.79501C111.212 10.4061 111.262 11.1006 111.126 11.8784C111.02 12.5248 110.82 13.0779 110.527 13.5375C110.234 13.992 109.878 14.3632 109.459 14.6511C109.045 14.9339 108.598 15.1385 108.118 15.2648L108.096 15.386C108.59 15.4213 109.048 15.5981 109.467 15.9163C109.886 16.2294 110.199 16.6688 110.406 17.2345C110.618 17.8001 110.661 18.4769 110.535 19.2648C110.404 20.0476 110.111 20.7471 109.656 21.3633C109.207 21.9744 108.59 22.4567 107.808 22.8103C107.03 23.1588 106.085 23.333 104.974 23.333H99.4515ZM101.08 22.0603H105.186C106.383 22.0603 107.313 21.7951 107.974 21.2648C108.636 20.7345 109.037 20.0678 109.179 19.2648C109.275 18.6739 109.219 18.1385 109.012 17.6587C108.805 17.1739 108.467 16.79 107.997 16.5072C107.527 16.2244 106.944 16.0829 106.247 16.0829H102.08L101.08 22.0603ZM102.292 14.8254H106.239C106.851 14.8254 107.406 14.6991 107.906 14.4466C108.406 14.194 108.82 13.8456 109.149 13.4011C109.477 12.9567 109.686 12.4491 109.777 11.8784C109.919 11.0551 109.765 10.3859 109.315 9.87077C108.871 9.35056 108.116 9.09046 107.05 9.09046H103.232L102.292 14.8254ZM111.277 23.333L113.217 11.6965H114.527L114.224 13.4844H114.323C114.646 12.8986 115.128 12.4263 115.77 12.0678C116.416 11.7041 117.105 11.5223 117.838 11.5223C117.949 11.5223 118.073 11.5248 118.209 11.5299C118.345 11.5299 118.459 11.5349 118.55 11.545L118.315 12.9162C118.254 12.9061 118.148 12.891 117.997 12.8708C117.85 12.8506 117.686 12.8405 117.504 12.8405C116.898 12.8405 116.338 12.9693 115.823 13.2269C115.313 13.4794 114.883 13.8304 114.535 14.2799C114.191 14.7294 113.969 15.242 113.868 15.8178L112.626 23.333H111.277ZM117.211 23.333L119.15 11.6965H120.506L118.567 23.333H117.211ZM120.317 9.6738C120.034 9.6738 119.794 9.57784 119.597 9.38591C119.405 9.19399 119.312 8.96167 119.317 8.68894C119.327 8.43136 119.43 8.20914 119.627 8.02227C119.829 7.83035 120.067 7.73439 120.34 7.73439C120.622 7.73439 120.862 7.83287 121.059 8.02984C121.256 8.22176 121.35 8.45409 121.34 8.72682C121.334 8.9844 121.231 9.20662 121.029 9.39349C120.827 9.58036 120.59 9.6738 120.317 9.6738ZM124.593 23.5754C123.639 23.5754 122.843 23.3229 122.207 22.8179C121.57 22.3128 121.126 21.6082 120.873 20.7042C120.621 19.8001 120.593 18.7471 120.79 17.5451C120.992 16.3481 121.368 15.3001 121.919 14.4011C122.474 13.4971 123.154 12.795 123.957 12.295C124.765 11.79 125.646 11.5374 126.601 11.5374C127.313 11.5374 127.881 11.6637 128.305 11.9162C128.735 12.1637 129.06 12.4718 129.283 12.8405C129.505 13.2092 129.664 13.5678 129.76 13.9163H129.881L130.896 7.81772H132.252L129.676 23.333H128.366L128.73 21.1739H128.563C128.346 21.5274 128.06 21.8911 127.707 22.2648C127.358 22.6335 126.929 22.9441 126.419 23.1966C125.909 23.4492 125.3 23.5754 124.593 23.5754ZM124.889 22.3406C125.641 22.3406 126.32 22.136 126.926 21.7269C127.538 21.3128 128.048 20.7446 128.457 20.0224C128.871 19.2951 129.154 18.4618 129.305 17.5224C129.462 16.593 129.459 15.7723 129.298 15.0602C129.136 14.343 128.823 13.7824 128.358 13.3784C127.894 12.9693 127.28 12.7647 126.517 12.7647C125.745 12.7647 125.058 12.9769 124.457 13.4011C123.856 13.8203 123.358 14.3885 122.964 15.1057C122.575 15.8228 122.305 16.6284 122.154 17.5224C122.007 18.4264 122.007 19.2421 122.154 19.9693C122.3 20.6966 122.598 21.2749 123.048 21.7042C123.502 22.1285 124.116 22.3406 124.889 22.3406ZM135.515 27.9391C134.722 27.9391 134.043 27.8356 133.477 27.6285C132.912 27.4265 132.452 27.1487 132.099 26.7952C131.75 26.4416 131.495 26.0452 131.333 25.6058L132.561 24.8861C132.672 25.179 132.841 25.4669 133.068 25.7497C133.296 26.0325 133.616 26.2649 134.03 26.4467C134.445 26.6335 134.988 26.727 135.659 26.727C136.685 26.727 137.566 26.4669 138.303 25.9467C139.041 25.4315 139.5 24.6335 139.682 23.5527L140.091 20.9315H139.97C139.763 21.285 139.485 21.6385 139.137 21.9921C138.788 22.3406 138.356 22.631 137.841 22.8633C137.331 23.0956 136.727 23.2118 136.03 23.2118C135.101 23.2118 134.313 22.982 133.667 22.5224C133.02 22.0628 132.563 21.4062 132.296 20.5527C132.028 19.6941 131.995 18.6714 132.197 17.4845C132.389 16.3077 132.758 15.2723 133.303 14.3784C133.854 13.4844 134.53 12.7875 135.334 12.2875C136.142 11.7875 137.025 11.5374 137.985 11.5374C138.697 11.5374 139.268 11.6637 139.697 11.9162C140.126 12.1637 140.452 12.4718 140.674 12.8405C140.902 13.2092 141.066 13.5678 141.167 13.9163H141.303L141.667 11.6965H142.985L141.015 23.636C140.849 24.6209 140.505 25.4315 139.985 26.0679C139.465 26.7042 138.818 27.174 138.046 27.477C137.278 27.7851 136.435 27.9391 135.515 27.9391ZM136.334 21.9769C137.081 21.9769 137.753 21.7976 138.349 21.4391C138.95 21.0754 139.452 20.5577 139.856 19.886C140.265 19.2092 140.546 18.4011 140.697 17.4617C140.849 16.5526 140.841 15.7471 140.674 15.0451C140.513 14.338 140.197 13.7824 139.727 13.3784C139.263 12.9693 138.652 12.7647 137.894 12.7647C137.111 12.7647 136.419 12.9743 135.818 13.3935C135.222 13.8127 134.73 14.3784 134.341 15.0905C133.957 15.7976 133.692 16.588 133.546 17.4617C133.404 18.3506 133.409 19.136 133.561 19.8178C133.717 20.4946 134.025 21.0249 134.485 21.4087C134.945 21.7875 135.561 21.9769 136.334 21.9769ZM147.583 23.5754C146.498 23.5754 145.601 23.3229 144.894 22.8179C144.187 22.3077 143.692 21.6032 143.409 20.7042C143.126 19.8001 143.083 18.7597 143.28 17.583C143.477 16.4112 143.866 15.3708 144.447 14.4617C145.028 13.5476 145.745 12.8329 146.599 12.3178C147.452 11.7976 148.379 11.5374 149.379 11.5374C150.01 11.5374 150.601 11.6536 151.152 11.8859C151.702 12.1132 152.169 12.4642 152.553 12.939C152.942 13.4087 153.212 14.0021 153.364 14.7193C153.515 15.4314 153.51 16.2749 153.349 17.2496L153.243 17.9163H144.152L144.341 16.7269H152.061C152.187 15.9794 152.152 15.3077 151.955 14.7117C151.758 14.1158 151.422 13.6435 150.947 13.295C150.477 12.9415 149.894 12.7647 149.197 12.7647C148.485 12.7647 147.811 12.9642 147.174 13.3632C146.543 13.7622 146.008 14.2824 145.568 14.9238C145.134 15.5602 144.854 16.2395 144.727 16.9617L144.576 17.8557C144.414 18.8405 144.434 19.6663 144.636 20.333C144.838 20.9946 145.205 21.4946 145.735 21.833C146.265 22.1714 146.944 22.3406 147.773 22.3406C148.328 22.3406 148.831 22.2547 149.28 22.083C149.73 21.9113 150.121 21.6815 150.455 21.3936C150.788 21.1007 151.056 20.78 151.258 20.4315L152.462 20.8481C152.205 21.338 151.841 21.7901 151.371 22.2042C150.907 22.6184 150.354 22.9517 149.712 23.2042C149.076 23.4517 148.366 23.5754 147.583 23.5754Z" fill="black"/>
<path d="M7.93724 0.692629C11.9375 0.692629 15.1804 3.9355 15.1804 7.93578V18.8199C15.1804 25.2729 7.3785 28.5045 2.81556 23.9416C1.45721 22.5832 0.694094 20.7409 0.694094 18.8199V7.93578C0.694094 3.9355 3.93696 0.692629 7.93724 0.692629Z" fill="#FECA20" stroke="black" stroke-width="1.38526"/>
<path d="M25.8987 7.68348C27.9 4.08886 33.372 5.49824 33.3878 9.61241C33.4016 13.1807 29.0878 14.9773 26.5646 12.4541C25.3018 11.1912 25.0299 9.24387 25.8987 7.68348Z" fill="#FF1414" stroke="black" stroke-width="1.38526"/>
<path d="M33.4318 21.4271C33.4318 27.8801 25.6299 31.1117 21.067 26.5488L1.82796 7.30981C1.10102 6.58288 0.692629 5.59693 0.692629 4.56889C0.692629 2.42809 2.42809 0.692629 4.56888 0.692629H11.394C14.1495 0.692629 16.7921 1.78722 18.7405 3.73562L31.3103 16.3055C32.6687 17.6638 33.4318 19.5061 33.4318 21.4271Z" fill="#1443FF" stroke="black" stroke-width="1.38526"/>
<path d="M41.267 0.692629C45.7055 0.692629 49.3037 4.29079 49.3037 8.72935V23.2531C49.3037 30.4131 40.647 33.9988 35.5841 28.936C34.077 27.4288 33.2302 25.3846 33.2302 23.2531V8.72935C33.2302 4.29079 36.8284 0.692629 41.267 0.692629Z" fill="#13FF7F" stroke="black" stroke-width="1.38526"/>
</svg>
