<svg width="40" height="41" viewBox="0 0 40 41" fill="none" xmlns="http://www.w3.org/2000/svg">
<rect y="0.1875" width="40" height="40" rx="8" fill="#E6EBFF"/>
<path d="M32.0134 25.3223L30.3969 30.5779L27.2236 29.7433L32.0134 25.3223Z" fill="#E4761B" stroke="#E4761B" stroke-width="0.190386"/>
<path d="M27.2236 29.7433L30.2843 25.7109L32.0134 25.3223L27.2236 29.7433Z" fill="#E4761B" stroke="#E4761B" stroke-width="0.190386"/>
<path d="M29.6353 21.3601L32.0136 25.3225L30.2845 25.7111L29.6353 21.3601ZM29.6353 21.3601L31.1656 20.3408L32.0136 25.3225L29.6353 21.3601Z" fill="#F6851B" stroke="#F6851B" stroke-width="0.190386"/>
<path d="M27.6875 18.3656L32.0864 16.6328L31.8678 17.582L27.6875 18.3656ZM31.7286 18.7223L27.6875 18.3656L31.8678 17.582L31.7286 18.7223Z" fill="#763D16" stroke="#763D16" stroke-width="0.190386"/>
<path d="M31.7286 18.7223L31.1655 20.3404L27.6875 18.3656L31.7286 18.7223ZM32.6097 17.0342L31.8678 17.582L32.0864 16.6328L32.6097 17.0342ZM31.7286 18.7223L31.8678 17.582L32.4574 18.0534L31.7286 18.7223Z" fill="#763D16" stroke="#763D16" stroke-width="0.190386"/>
<path d="M23.812 28.4629L24.9117 28.8005L27.2238 29.7433L23.812 28.4629Z" fill="#E2761B" stroke="#E2761B" stroke-width="0.190386"/>
<path d="M31.1656 20.341L31.7287 18.723L32.2123 19.0797L31.1656 20.341ZM31.1656 20.341L26.6011 18.895L27.6875 18.3662L31.1656 20.341Z" fill="#763D16" stroke="#763D16" stroke-width="0.190386"/>
<path d="M28.774 13.4033L27.6875 18.3659L26.6011 18.8946L28.774 13.4033Z" fill="#763D16" stroke="#763D16" stroke-width="0.190386"/>
<path d="M32.0864 16.6331L27.6875 18.3659L28.774 13.4033L32.0864 16.6331Z" fill="#763D16" stroke="#763D16" stroke-width="0.190386"/>
<path d="M28.7739 13.4032L33.3649 12.8936L32.0863 16.633L28.7739 13.4032Z" fill="#763D16" stroke="#763D16" stroke-width="0.190386"/>
<path d="M31.1656 20.3406L29.6352 21.3599L26.6011 18.8945L31.1656 20.3406Z" fill="#F6851B" stroke="#F6851B" stroke-width="0.190386"/>
<path d="M33.1662 9.32031L33.3649 12.8941L28.7739 13.4038L33.1662 9.32031Z" fill="#763D16" stroke="#763D16" stroke-width="0.190386"/>
<path d="M33.1662 9.32031L23.9908 15.7353L23.8716 11.3843L33.1662 9.32031Z" fill="#E2761B" stroke="#E2761B" stroke-width="0.190386"/>
<path d="M17.0483 10.8613L23.8719 11.3837L23.9912 15.7347L17.0483 10.8613Z" fill="#F6851B" stroke="#F6851B" stroke-width="0.190386"/>
<path d="M26.6009 18.8946L23.9907 15.7349L28.7739 13.4033L26.6009 18.8946Z" fill="#763D16" stroke="#763D16" stroke-width="0.190386"/>
<path d="M26.6011 18.8945L29.6353 21.3599L25.3755 21.8122L26.6011 18.8945Z" fill="#E4761B" stroke="#E4761B" stroke-width="0.190386"/>
<path d="M25.3753 21.8128L23.9907 15.7354L26.6009 18.8951L25.3753 21.8128Z" fill="#E4761B" stroke="#E4761B" stroke-width="0.190386"/>
<path d="M28.7739 13.4038L23.9907 15.7353L33.1661 9.32031L28.7739 13.4038Z" fill="#763D16" stroke="#763D16" stroke-width="0.190386"/>
<path d="M17.1079 29.6411L19.2742 31.8134L16.3262 29.2334L17.1079 29.6411Z" fill="#C0AD9E" stroke="#C0AD9E" stroke-width="0.190386"/>
<path d="M27.2236 29.7434L28.2505 25.9912L30.2843 25.7109L27.2236 29.7434Z" fill="#CD6116" stroke="#CD6116" stroke-width="0.190386"/>
<path d="M8.32324 19.1879L12.0729 15.3975L8.80686 18.7356L8.32324 19.1879Z" fill="#E2761B" stroke="#E2761B" stroke-width="0.190386"/>
<path d="M30.2848 25.7108L28.2509 25.9911L29.6355 21.3598L30.2848 25.7108ZM23.9912 15.7347L20.3409 15.62L17.0483 10.8613L23.9912 15.7347Z" fill="#F6851B" stroke="#F6851B" stroke-width="0.190386"/>
<path d="M29.6354 21.3604L28.2508 25.9917L28.1382 23.7302L29.6354 21.3604Z" fill="#E4751F" stroke="#E4751F" stroke-width="0.190386"/>
<path d="M25.3755 21.8127L29.6353 21.3604L28.138 23.7302L25.3755 21.8127Z" fill="#CD6116" stroke="#CD6116" stroke-width="0.190386"/>
<path d="M20.3403 15.6201L23.9906 15.7348L25.3752 21.8122L20.3403 15.6201Z" fill="#F6851B" stroke="#F6851B" stroke-width="0.190386"/>
<path d="M20.3406 15.6202L10.4895 6.85449L17.0481 10.8615L20.3406 15.6202ZM17.0414 30.973L8.48216 33.5212L6.77295 27.2463L17.0414 30.973Z" fill="#E4761B" stroke="#E4761B" stroke-width="0.190386"/>
<path d="M9.59521 20.7543L12.8281 18.3145L15.5377 18.9196L9.59521 20.7543Z" fill="#763D16" stroke="#763D16" stroke-width="0.190386"/>
<path d="M15.5377 18.9197L12.8281 18.3145L14.279 12.5557L15.5377 18.9197Z" fill="#763D16" stroke="#763D16" stroke-width="0.190386"/>
<path d="M8.80664 18.7349L12.8279 18.3145L9.595 20.7543L8.80664 18.7349Z" fill="#763D16" stroke="#763D16" stroke-width="0.190386"/>
<path d="M28.138 23.73L26.4686 22.921L25.3755 21.8125L28.138 23.73Z" fill="#CD6116" stroke="#CD6116" stroke-width="0.190386"/>
<path d="M8.80684 18.7352L8.52197 17.2891L12.8281 18.3147L8.80684 18.7352Z" fill="#763D16" stroke="#763D16" stroke-width="0.190386"/>
<path d="M26.124 24.7428L26.4685 22.9209L28.138 23.7299L26.124 24.7428Z" fill="#233447" stroke="#233447" stroke-width="0.190386"/>
<path d="M28.2506 25.991L26.124 24.7424L28.138 23.7295L28.2506 25.991Z" fill="#F6851B" stroke="#F6851B" stroke-width="0.190386"/>
<path d="M12.8282 18.3145L8.52201 17.2889L8.1709 16.0721L12.8282 18.3145ZM14.279 12.5557L12.8282 18.3145L8.1709 16.0721L14.279 12.5557ZM14.279 12.5557L20.3407 15.6198L15.5377 18.9197L14.279 12.5557Z" fill="#763D16" stroke="#763D16" stroke-width="0.190386"/>
<path d="M15.5376 18.92L20.3406 15.6201L22.4804 21.9077L15.5376 18.92ZM22.4804 21.9077L15.8423 21.774L15.5376 18.92L22.4804 21.9077Z" fill="#E4761B" stroke="#E4761B" stroke-width="0.190386"/>
<path d="M9.59521 20.7547L15.5377 18.92L15.8424 21.774L9.59521 20.7547ZM25.3756 21.8122L22.4805 21.9077L20.3407 15.6201L25.3756 21.8122Z" fill="#F6851B" stroke="#F6851B" stroke-width="0.190386"/>
<path d="M26.4686 22.921L26.1241 24.7429L25.3755 21.8125L26.4686 22.921Z" fill="#CD6116" stroke="#CD6116" stroke-width="0.190386"/>
<path d="M10.4897 6.85449L20.3409 15.6202L14.2792 12.556L10.4897 6.85449Z" fill="#763D16" stroke="#763D16" stroke-width="0.190386"/>
<path d="M6.77295 27.2463L15.0805 26.915L17.0414 30.973L6.77295 27.2463Z" fill="#E4761B" stroke="#E4761B" stroke-width="0.190386"/>
<path d="M17.0415 30.9727L15.0806 26.9147L19.1615 26.7236L17.0415 30.9727Z" fill="#CD6116" stroke="#CD6116" stroke-width="0.190386"/>
<path d="M26.1241 24.7428L28.2507 25.9914L29.4233 28.6479L26.1241 24.7428ZM15.8424 21.7742L6.77295 27.2464L9.59513 20.7549L15.8424 21.7742ZM15.0805 26.9151L6.77295 27.2464L15.8424 21.7742L15.0805 26.9151ZM25.3755 21.8124L25.9187 23.7108L23.2953 23.8573L25.3755 21.8124ZM23.2953 23.8573L22.4804 21.9079L25.3755 21.8124L23.2953 23.8573Z" fill="#F6851B" stroke="#F6851B" stroke-width="0.190386"/>
<path d="M19.2741 31.8136L17.0415 30.9727L24.8058 32.2276L19.2741 31.8136Z" fill="#C0AD9E" stroke="#C0AD9E" stroke-width="0.190386"/>
<path d="M9.59521 20.7548L8.32324 19.1877L8.80686 18.7354L9.59521 20.7548Z" fill="#763D16" stroke="#763D16" stroke-width="0.190386"/>
<path d="M25.6869 31.2975L24.8058 32.2276L17.0415 30.9727L25.6869 31.2975Z" fill="#D7C1B3" stroke="#D7C1B3" stroke-width="0.190386"/>
<path d="M26.1043 29.017L17.0415 30.9727L19.1615 26.7236L26.1043 29.017Z" fill="#E4761B" stroke="#E4761B" stroke-width="0.190386"/>
<path d="M17.0415 30.9733L26.1043 29.0176L25.6869 31.2982L17.0415 30.9733Z" fill="#D7C1B3" stroke="#D7C1B3" stroke-width="0.190386"/>
<path d="M8.17068 16.0727L7.87256 11.1738L14.2788 12.5562L8.17068 16.0727ZM8.80666 18.7355L7.92556 17.8755L8.52179 17.2895L8.80666 18.7355Z" fill="#763D16" stroke="#763D16" stroke-width="0.190386"/>
<path d="M20.9966 23.1695L22.4805 21.9082L22.2686 24.9915L20.9966 23.1695Z" fill="#CD6116" stroke="#CD6116" stroke-width="0.190386"/>
<path d="M22.4806 21.9082L20.9966 23.1695L18.8369 24.2462L22.4806 21.9082Z" fill="#CD6116" stroke="#CD6116" stroke-width="0.190386"/>
<path d="M29.4232 28.6482L29.0191 28.3616L26.124 24.7432L29.4232 28.6482Z" fill="#F6851B" stroke="#F6851B" stroke-width="0.190386"/>
<path d="M18.8367 24.2461L15.8423 21.7744L22.4804 21.9082L18.8367 24.2461Z" fill="#CD6116" stroke="#CD6116" stroke-width="0.190386"/>
<path d="M22.2686 24.9915L22.4805 21.9082L23.2954 23.8576L22.2686 24.9915Z" fill="#E4751F" stroke="#E4751F" stroke-width="0.190386"/>
<path d="M7.63428 16.5564L8.17089 16.0723L8.52201 17.289L7.63428 16.5564Z" fill="#763D16" stroke="#763D16" stroke-width="0.190386"/>
<path d="M22.2686 24.9909L18.8369 24.2456L20.9966 23.1689L22.2686 24.9909Z" fill="#233447" stroke="#233447" stroke-width="0.190386"/>
<path d="M14.2788 12.556L7.87256 11.1737L10.4894 6.85449L14.2788 12.556Z" fill="#763D16" stroke="#763D16" stroke-width="0.190386"/>
<path d="M24.8057 32.2276L25.17 33.1831L19.2739 31.8135L24.8057 32.2276Z" fill="#C0AD9E" stroke="#C0AD9E" stroke-width="0.190386"/>
<path d="M19.1615 26.7242L18.8369 24.2461L22.2686 24.9914L19.1615 26.7242Z" fill="#F6851B" stroke="#F6851B" stroke-width="0.190386"/>
<path d="M15.8423 21.7744L18.8367 24.2461L19.1613 26.7242L15.8423 21.7744Z" fill="#E4751F" stroke="#E4751F" stroke-width="0.190386"/>
<path d="M23.2954 23.8575L25.9188 23.711L29.0192 28.3615L23.2954 23.8575ZM15.8424 21.7744L19.1615 26.7242L15.0806 26.9154L15.8424 21.7744Z" fill="#F6851B" stroke="#F6851B" stroke-width="0.190386"/>
<path d="M23.2954 23.8574L26.5548 28.6289L22.2686 24.9914L23.2954 23.8574Z" fill="#E4751F" stroke="#E4751F" stroke-width="0.190386"/>
<path d="M22.2686 24.9912L26.5548 28.6287L26.1043 29.0173L22.2686 24.9912Z" fill="#F6851B" stroke="#F6851B" stroke-width="0.190386"/>
<path d="M26.104 29.0175L19.1611 26.7241L22.2682 24.9914L26.104 29.0175ZM29.0189 28.3613L26.5545 28.6289L23.295 23.8574L29.0189 28.3613Z" fill="#F6851B" stroke="#F6851B" stroke-width="0.190386"/>
<path d="M29.6688 30.6035L28.6088 32.6484L25.1705 33.1836L29.6688 30.6035ZM25.1705 33.1836L24.8062 32.228L25.6873 31.2979L25.1705 33.1836Z" fill="#C0AD9E" stroke="#C0AD9E" stroke-width="0.190386"/>
<path d="M25.6867 31.2979L26.3359 31.0494L25.1699 33.1836L25.6867 31.2979ZM25.1699 33.1836L26.3359 31.0494L29.6682 30.6035L25.1699 33.1836Z" fill="#C0AD9E" stroke="#C0AD9E" stroke-width="0.190386"/>
<path d="M29.0193 28.3613L29.8341 28.8391L27.3564 29.1258L29.0193 28.3613Z" fill="#161616" stroke="#161616" stroke-width="0.190386"/>
<path d="M27.3563 29.1258L26.5547 28.6289L29.0191 28.3613L27.3563 29.1258ZM27.0714 29.5016L30.0857 29.1513L29.6684 30.6037L27.0714 29.5016Z" fill="#161616" stroke="#161616" stroke-width="0.190386"/>
<path d="M29.6685 30.6037L26.3362 31.0497L27.0716 29.5017L29.6685 30.6037ZM26.3362 31.0497L25.687 31.2981L26.1044 29.0175L26.3362 31.0497ZM26.1044 29.0175L26.5549 28.6289L27.3565 29.1258L26.1044 29.0175ZM29.8342 28.8391L30.0859 29.1513L27.0716 29.5017L29.8342 28.8391Z" fill="#161616" stroke="#161616" stroke-width="0.190386"/>
<path d="M27.0712 29.5014L27.3561 29.1255L29.8338 28.8389L27.0712 29.5014ZM26.104 29.0172L27.0712 29.5014L26.3359 31.0494L26.104 29.0172Z" fill="#161616" stroke="#161616" stroke-width="0.190386"/>
<path d="M27.3561 29.1259L27.0712 29.5017L26.104 29.0176L27.3561 29.1259Z" fill="#161616" stroke="#161616" stroke-width="0.190386"/>
</svg>
