<svg width="40" height="41" viewBox="0 0 40 41" fill="none" xmlns="http://www.w3.org/2000/svg">
<rect y="0.1875" width="40" height="40" rx="8" fill="#E6EBFF"/>
<g clip-path="url(#clip0_58_109)">
<path d="M36 20.1875C36 11.3509 28.8366 4.1875 20 4.1875C11.1634 4.1875 4 11.3509 4 20.1875C4 29.0241 11.1634 36.1875 20 36.1875C28.8366 36.1875 36 29.0241 36 20.1875Z" fill="url(#paint0_radial_58_109)"/>
<path d="M14.5757 15.7209C17.5715 12.7877 22.4287 12.7877 25.4245 15.7209L25.7851 16.0739C25.9349 16.2205 25.9349 16.4583 25.7851 16.605L24.5517 17.8125C24.4768 17.8859 24.3554 17.8859 24.2805 17.8125L23.7843 17.3268C21.6944 15.2805 18.3059 15.2805 16.2159 17.3268L15.6846 17.847C15.6097 17.9203 15.4883 17.9203 15.4134 17.847L14.18 16.6394C14.0302 16.4928 14.0302 16.255 14.18 16.1083L14.5757 15.7209ZM27.9753 18.2183L29.073 19.293C29.2228 19.4397 29.2228 19.6774 29.073 19.8241L24.1233 24.6703C23.9736 24.8169 23.7307 24.8169 23.5809 24.6703C23.5809 24.6703 23.5809 24.6703 23.5809 24.6703L20.068 21.2308C20.0305 21.1941 19.9698 21.1941 19.9324 21.2308C19.9324 21.2308 19.9324 21.2308 19.9324 21.2308L16.4195 24.6703C16.2697 24.8169 16.0268 24.8169 15.877 24.6703C15.877 24.6703 15.877 24.6703 15.877 24.6703L10.9273 19.824C10.7775 19.6774 10.7775 19.4396 10.9273 19.2929L12.025 18.2182C12.1748 18.0715 12.4176 18.0715 12.5674 18.2182L16.0804 21.6577C16.1179 21.6944 16.1786 21.6944 16.216 21.6577C16.216 21.6577 16.216 21.6577 16.216 21.6577L19.7288 18.2182C19.8786 18.0715 20.1215 18.0715 20.2713 18.2182C20.2713 18.2182 20.2713 18.2182 20.2713 18.2182L23.7843 21.6577C23.8217 21.6944 23.8824 21.6944 23.9199 21.6577L27.4328 18.2183C27.5826 18.0716 27.8255 18.0716 27.9753 18.2183Z" fill="white"/>
</g>
<defs>
<radialGradient id="paint0_radial_58_109" cx="0" cy="0" r="1" gradientUnits="userSpaceOnUse" gradientTransform="translate(4 20.1875) scale(32)">
<stop stop-color="#5D9DF6"/>
<stop offset="1" stop-color="#006FFF"/>
</radialGradient>
<clipPath id="clip0_58_109">
<rect width="32" height="32" fill="white" transform="translate(4 4.1875)"/>
</clipPath>
</defs>
</svg>
